<svg xmlns="http://www.w3.org/2000/svg" width="594" height="420" viewBox="0 0 594 420" version="1.1"><path d="M 229.465 175.865 C 226.696 176.874, 223.486 178.205, 222.333 178.822 C 221.179 179.439, 218.215 182.192, 215.745 184.939 C 212.879 188.127, 210.846 191.553, 210.127 194.410 C 209.507 196.871, 209 200.486, 209 202.443 C 209 204.399, 209.360 206, 209.800 206 C 210.239 206, 211.559 202.737, 212.733 198.749 C 214.392 193.110, 215.839 190.482, 219.242 186.930 C 221.649 184.418, 225.842 181.269, 228.559 179.932 C 233.500 177.500, 233.500 177.500, 274.500 177.500 C 315.192 177.500, 315.538 177.517, 320.500 179.804 C 323.250 181.072, 327.637 184.385, 330.250 187.168 C 332.863 189.951, 335 192.855, 335 193.622 C 335 194.767, 335.359 194.793, 337 193.768 C 338.100 193.081, 339 191.988, 339 191.340 C 339 190.692, 336.759 187.709, 334.020 184.712 C 330.942 181.344, 327.028 178.354, 323.770 176.882 C 318.517 174.508, 318.361 174.499, 276.500 174.265 C 237.902 174.049, 234.092 174.178, 229.465 175.865 M 189.446 281.279 C 189.176 281.983, 189.088 291.321, 189.251 302.029 C 189.546 321.500, 189.546 321.500, 189.773 301.193 C 190 280.886, 190 280.886, 202.407 281.193 C 209.231 281.362, 214.604 281.163, 214.348 280.750 C 214.092 280.337, 208.494 280, 201.910 280 C 193.107 280, 189.807 280.339, 189.446 281.279" stroke="none" fill="#828282" fill-rule="evenodd"/><path d="M 286.500 97.699 C 285.400 97.955, 280.488 99.524, 275.584 101.185 C 270.680 102.846, 264.155 105.559, 261.084 107.214 C 258.013 108.869, 253.250 111.822, 250.500 113.775 C 247.750 115.729, 242.858 119.841, 239.629 122.914 C 236.400 125.986, 231.222 131.878, 228.123 136.007 C 225.024 140.136, 220.619 147.336, 218.335 152.007 C 216.050 156.678, 212.930 164.100, 211.401 168.500 C 209.872 172.900, 208.144 176.872, 207.561 177.326 C 206.881 177.855, 206.999 178.018, 207.889 177.780 C 208.653 177.575, 210.587 173.848, 212.187 169.499 C 213.787 165.149, 216.793 157.970, 218.868 153.545 C 220.942 149.120, 224.385 143.025, 226.519 140 C 228.653 136.975, 232.106 132.416, 234.193 129.868 C 236.280 127.321, 241.056 122.726, 244.806 119.658 C 248.557 116.590, 254.237 112.507, 257.430 110.584 C 260.622 108.662, 266.610 105.684, 270.735 103.966 C 274.861 102.249, 281.896 100.017, 286.368 99.006 C 290.841 97.996, 293.150 97.183, 291.500 97.200 C 289.850 97.218, 287.600 97.442, 286.500 97.699 M 394.144 120.616 C 391.257 122.054, 388.154 124.417, 387.250 125.866 C 386.345 127.315, 385.464 128.692, 385.292 128.927 C 385.120 129.162, 384.323 128.487, 383.521 127.427 C 382.720 126.367, 382.049 125.860, 382.032 126.300 C 382.014 126.739, 382.687 128.427, 383.526 130.050 C 384.365 131.672, 385.490 133, 386.026 133 C 386.562 133, 387 131.936, 387 130.635 C 387 129.334, 387.940 127.075, 389.088 125.615 C 390.237 124.155, 392.374 122.354, 393.838 121.614 C 395.302 120.873, 398.181 119.963, 400.235 119.591 C 402.290 119.219, 405.686 119.377, 407.783 119.942 C 409.880 120.506, 412.863 122.291, 414.412 123.908 C 416.330 125.910, 417.385 128.240, 417.720 131.210 C 417.991 133.610, 417.736 137.297, 417.154 139.405 C 416.208 142.832, 416.329 143.439, 418.298 145.150 C 419.509 146.203, 424.540 150.087, 429.477 153.782 C 434.415 157.477, 441.040 163.592, 444.200 167.371 C 447.360 171.151, 451.227 176.551, 452.792 179.371 C 454.357 182.192, 456.234 185.988, 456.963 187.806 C 457.976 190.331, 458.012 191.388, 457.118 192.282 C 456.474 192.926, 452.021 193.730, 447.223 194.068 C 438.500 194.683, 438.500 194.683, 446 194.742 C 450.125 194.774, 454.625 194.490, 456 194.109 C 457.492 193.697, 458.624 192.564, 458.808 191.299 C 458.977 190.133, 457.563 186.102, 455.664 182.340 C 453.766 178.578, 449.902 172.575, 447.078 169 C 444.253 165.425, 440.268 161.019, 438.221 159.210 C 436.175 157.400, 430.837 153.242, 426.360 149.971 C 418.220 144.023, 418.220 144.023, 418.722 135.761 C 419.179 128.250, 419.017 127.239, 416.941 124.624 C 415.685 123.043, 412.822 120.915, 410.579 119.896 C 408.335 118.878, 404.901 118.034, 402.946 118.022 C 400.992 118.010, 397.031 119.177, 394.144 120.616 M 344 193.913 C 338.500 194.500, 338.500 194.500, 338.500 200.809 C 338.500 205.663, 338.114 207.337, 336.827 208.066 C 335.907 208.587, 327.807 209.431, 318.827 209.941 C 302.500 210.870, 302.500 210.870, 318.634 210.466 C 328.522 210.219, 335.826 209.581, 337.500 208.818 C 340.169 207.602, 340.217 207.426, 339.588 201.287 C 338.970 195.248, 339.034 194.995, 341.222 194.864 C 342.475 194.790, 354.300 194.424, 367.500 194.051 C 391.500 193.373, 391.500 193.373, 370.500 193.349 C 358.950 193.336, 347.025 193.590, 344 193.913 M 244.750 210.749 C 254.788 210.912, 271.213 210.912, 281.250 210.749 C 291.288 210.585, 283.075 210.452, 263 210.452 C 242.925 210.452, 234.713 210.585, 244.750 210.749 M 448.448 306 C 448.500 322.500, 448.500 322.500, 453.328 322.808 C 456.029 322.980, 458.782 322.596, 459.578 321.936 C 460.714 320.993, 460.957 317.612, 460.789 305.128 C 460.577 289.500, 460.577 289.500, 460.039 305.500 C 459.500 321.500, 459.500 321.500, 454.500 321.500 C 449.500 321.500, 449.500 321.500, 448.948 305.500 C 448.397 289.500, 448.397 289.500, 448.448 306 M 275.200 338.200 C 274.384 339.016, 274 343.756, 274 353 C 274 362.244, 274.384 366.984, 275.200 367.800 C 275.860 368.460, 278.447 368.929, 280.950 368.843 C 285.500 368.686, 285.500 368.686, 280.500 368.093 C 275.500 367.500, 275.500 367.500, 275.500 353 C 275.500 338.500, 275.500 338.500, 284.500 338.500 C 293.500 338.500, 293.500 338.500, 294.118 342 C 294.732 345.474, 294.738 345.477, 294.868 342.450 C 294.941 340.773, 294.460 338.860, 293.800 338.200 C 293.064 337.464, 289.467 337, 284.500 337 C 279.533 337, 275.936 337.464, 275.200 338.200 M 411.258 337.939 C 420.016 338.500, 420.016 338.500, 421.758 342 C 423.125 344.747, 424.186 345.566, 426.688 345.809 C 428.441 345.979, 430.083 346.775, 430.336 347.578 C 430.628 348.505, 430.738 348.392, 430.637 347.270 C 430.527 346.056, 429.382 345.343, 426.989 345 C 423.899 344.557, 423.464 344.124, 423.184 341.217 C 422.868 337.933, 422.868 337.933, 434.184 338.217 C 445.500 338.500, 445.500 338.500, 445.496 341.657 C 445.494 343.393, 445.831 344.604, 446.246 344.348 C 446.661 344.092, 447 342.874, 447 341.641 C 447 340.408, 446.460 338.860, 445.800 338.200 C 445.018 337.418, 440.911 337, 434 337 C 427.089 337, 422.982 337.418, 422.200 338.200 C 421.267 339.133, 421 339.133, 421 338.200 C 421 337.340, 418.383 337.053, 411.750 337.189 C 402.500 337.378, 402.500 337.378, 411.258 337.939" stroke="none" fill="#ffffff" fill-rule="evenodd"/><path d="M 286.368 98.965 C 281.896 99.998, 274.861 102.249, 270.735 103.966 C 266.610 105.684, 260.622 108.662, 257.430 110.584 C 254.237 112.507, 248.557 116.590, 244.806 119.658 C 241.056 122.726, 236.280 127.321, 234.193 129.868 C 232.106 132.416, 228.653 136.975, 226.519 140 C 224.385 143.025, 220.942 149.120, 218.868 153.545 C 216.793 157.970, 213.781 165.170, 212.174 169.545 C 209.251 177.500, 209.251 177.500, 199.376 178.056 C 189.500 178.613, 189.500 178.613, 200.250 178.806 C 208.772 178.960, 211 179.294, 211 180.418 C 211 181.198, 210.727 182.548, 210.393 183.418 C 210.059 184.288, 209.272 185.002, 208.643 185.005 C 207.858 185.008, 207.500 188.334, 207.500 195.632 C 207.500 205.786, 207.608 206.325, 209.943 207.877 C 212.130 209.330, 218.782 209.500, 273.443 209.500 C 318.876 209.500, 335.012 209.195, 336.500 208.309 C 338.163 207.320, 338.500 206.055, 338.500 200.809 C 338.500 194.500, 338.500 194.500, 345.500 193.764 C 349.350 193.359, 375.225 193.191, 403 193.391 C 430.775 193.592, 454.512 193.371, 455.750 192.902 C 456.988 192.433, 458 191.517, 458 190.866 C 458 190.215, 456.372 186.433, 454.383 182.462 C 452.393 178.490, 447.997 171.924, 444.612 167.870 C 441.228 163.817, 434.418 157.477, 429.479 153.782 C 424.541 150.087, 419.509 146.203, 418.298 145.150 C 416.329 143.439, 416.208 142.832, 417.154 139.405 C 417.736 137.297, 417.991 133.610, 417.720 131.210 C 417.385 128.240, 416.330 125.910, 414.412 123.908 C 412.863 122.291, 409.880 120.506, 407.783 119.942 C 405.686 119.377, 402.290 119.219, 400.235 119.591 C 398.181 119.963, 395.302 120.873, 393.838 121.614 C 392.374 122.354, 390.237 124.155, 389.088 125.615 C 387.940 127.075, 387 129.334, 387 130.635 C 387 131.936, 386.525 133, 385.944 133 C 385.363 133, 384.012 131.021, 382.943 128.603 C 381.873 126.185, 379.311 122.802, 377.249 121.086 C 375.187 119.370, 371.250 116.250, 368.500 114.152 C 365.750 112.054, 360.704 108.633, 357.287 106.550 C 353.870 104.467, 348.020 101.618, 344.287 100.219 C 337.912 97.830, 336.196 97.658, 316 97.381 C 297.786 97.130, 293.257 97.373, 286.368 98.965 M 229.465 175.865 C 226.696 176.874, 223.486 178.205, 222.333 178.822 C 221.179 179.439, 218.215 182.192, 215.745 184.939 C 212.879 188.127, 210.846 191.553, 210.127 194.410 C 209.507 196.871, 209 200.486, 209 202.443 C 209 204.399, 209.360 206, 209.800 206 C 210.239 206, 211.559 202.737, 212.733 198.749 C 214.392 193.110, 215.839 190.482, 219.242 186.930 C 221.649 184.418, 225.842 181.269, 228.559 179.932 C 233.500 177.500, 233.500 177.500, 274.500 177.500 C 315.192 177.500, 315.538 177.517, 320.500 179.804 C 323.250 181.072, 327.637 184.385, 330.250 187.168 C 332.863 189.951, 335 192.855, 335 193.622 C 335 194.767, 335.359 194.793, 337 193.768 C 338.100 193.081, 339 191.988, 339 191.340 C 339 190.692, 336.759 187.709, 334.020 184.712 C 330.942 181.344, 327.028 178.354, 323.770 176.882 C 318.517 174.508, 318.361 174.499, 276.500 174.265 C 237.902 174.049, 234.092 174.178, 229.465 175.865" stroke="none" fill="#909090" fill-rule="evenodd"/><path d="M 190.500 180.098 C 185 180.522, 177.914 181.324, 174.754 181.881 C 171.594 182.438, 166.194 184.238, 162.754 185.881 C 158.776 187.781, 155.863 189.949, 154.750 191.838 C 153.787 193.472, 153 195.871, 153 197.169 C 153 198.467, 153.928 201.262, 155.063 203.379 C 156.198 205.496, 158.560 208.552, 160.313 210.170 C 162.066 211.788, 166.040 214.665, 169.144 216.564 C 172.248 218.462, 178.548 221.528, 183.144 223.377 C 187.740 225.227, 195.325 227.882, 200 229.279 C 204.675 230.676, 212.325 232.732, 217 233.848 C 221.675 234.965, 229.550 236.597, 234.500 237.474 C 239.450 238.352, 249.125 239.746, 256 240.573 C 262.875 241.399, 272.775 242.534, 278 243.093 C 283.225 243.653, 309.325 244.295, 336 244.521 C 384.500 244.930, 384.500 244.930, 385 248.215 C 385.500 251.500, 385.500 251.500, 403.185 251.773 C 420.870 252.046, 420.870 252.046, 421.185 248.773 C 421.481 245.695, 421.768 245.470, 426 245 C 430.222 244.531, 430.500 244.315, 430.500 241.500 C 430.500 238.704, 430.221 238.480, 426.409 238.200 C 422.892 237.943, 422.121 237.452, 420.909 234.700 C 419.500 231.500, 419.500 231.500, 403.576 231.224 C 394.638 231.069, 387.243 231.357, 386.719 231.881 C 386.205 232.395, 385.479 234.319, 385.105 236.157 C 384.425 239.500, 384.425 239.500, 373.963 240.127 C 368.208 240.473, 352.700 240.809, 339.500 240.875 C 326.300 240.941, 305.600 240.319, 293.500 239.493 C 281.400 238.667, 267.675 237.535, 263 236.977 C 258.325 236.419, 249.775 235.241, 244 234.359 C 238.225 233.477, 229.675 231.955, 225 230.978 C 220.325 230.002, 211.775 227.962, 206 226.446 C 200.225 224.930, 191.253 221.963, 186.063 219.853 C 180.872 217.743, 174.194 214.551, 171.223 212.759 C 168.251 210.966, 164.060 207.598, 161.910 205.272 C 158.984 202.108, 158 200.202, 158 197.697 C 158 195.512, 158.786 193.610, 160.264 192.222 C 161.509 191.052, 164.174 189.407, 166.187 188.566 C 168.201 187.725, 173.766 186.354, 178.555 185.518 C 183.344 184.683, 191.942 184, 197.662 184 C 206.114 184, 208.174 183.711, 208.655 182.457 C 208.981 181.608, 209.079 180.771, 208.874 180.596 C 208.668 180.421, 206.700 180.065, 204.500 179.803 C 202.300 179.542, 196 179.675, 190.500 180.098 M 109 284.481 C 109 287.338, 109.438 288.072, 111.443 288.575 C 112.787 288.912, 114.353 288.900, 114.922 288.548 C 115.492 288.196, 116.868 288.394, 117.979 288.989 C 119.873 290.002, 120 291.041, 120 305.535 C 120 321, 120 321, 123.375 321 C 126.355 321, 126.823 320.634, 127.375 317.875 C 127.719 316.156, 128 308.956, 128 301.875 C 128 289, 128 289, 132.891 289 C 137.743 289, 137.784 288.973, 138.193 285.469 C 138.420 283.528, 138.394 281.728, 138.136 281.469 C 137.878 281.211, 131.217 281, 123.333 281 C 109 281, 109 281, 109 284.481 M 144.445 282.282 C 144.175 282.987, 144.076 291.875, 144.227 302.032 C 144.500 320.500, 144.500 320.500, 148.250 320.810 C 152 321.121, 152 321.121, 152 313.760 C 152 309.369, 152.484 305.916, 153.200 305.200 C 153.923 304.477, 157.422 304, 162 304 C 166.578 304, 170.077 304.477, 170.800 305.200 C 171.516 305.916, 172 309.369, 172 313.760 C 172 321.121, 172 321.121, 175.750 320.810 C 179.500 320.500, 179.500 320.500, 179.500 301 C 179.500 281.500, 179.500 281.500, 175.793 281.192 C 172.086 280.884, 172.086 280.884, 171.793 288.692 C 171.500 296.500, 171.500 296.500, 163.153 296.792 C 157.859 296.977, 154.293 296.658, 153.403 295.920 C 152.448 295.127, 152 292.560, 152 287.878 C 152 281, 152 281, 148.469 281 C 146.519 281, 144.717 281.574, 144.445 282.282 M 190 301.031 C 190 321.062, 190 321.062, 202.250 320.781 C 214.500 320.500, 214.500 320.500, 214.813 317.250 C 215.115 314.117, 214.990 313.995, 211.313 313.860 C 209.216 313.783, 205.893 313.814, 203.929 313.929 C 201.754 314.056, 199.871 313.549, 199.111 312.634 C 198.425 311.807, 198.007 309.639, 198.182 307.815 C 198.500 304.500, 198.500 304.500, 205.810 304.205 C 213.120 303.910, 213.120 303.910, 212.810 300.705 C 212.500 297.500, 212.500 297.500, 205.500 297 C 198.500 296.500, 198.500 296.500, 198.500 293 C 198.500 289.500, 198.500 289.500, 206.142 289.210 C 213.785 288.920, 213.785 288.920, 214.273 285.710 C 214.542 283.944, 214.564 282.163, 214.322 281.750 C 214.080 281.337, 208.509 281, 201.941 281 C 190 281, 190 281, 190 301.031 M 238.229 300.750 C 238.500 320.500, 238.500 320.500, 250.750 320.781 C 263 321.062, 263 321.062, 263 317.531 C 263 314, 263 314, 255.700 314 C 251.356 314, 247.914 313.514, 247.200 312.800 C 246.371 311.971, 246 306.867, 246 296.300 C 246 281, 246 281, 241.979 281 C 237.958 281, 237.958 281, 238.229 300.750 M 282.532 282.700 C 282.136 283.690, 279.545 290.575, 276.774 298 C 274.003 305.425, 271.139 313.075, 270.411 315 C 269.683 316.925, 269.068 319.063, 269.044 319.750 C 269.016 320.539, 270.407 321, 272.820 321 C 276.169 321, 276.815 320.600, 278.070 317.750 C 279.497 314.508, 279.520 314.499, 287.629 314.212 C 295.757 313.923, 295.757 313.923, 297.845 317.462 C 299.609 320.451, 300.480 321, 303.466 321 C 305.410 321, 306.996 320.887, 306.992 320.750 C 306.988 320.613, 303.680 311.725, 299.642 301 C 292.300 281.500, 292.300 281.500, 287.776 281.200 C 284.178 280.962, 283.105 281.269, 282.532 282.700 M 314 301 C 314 321, 314 321, 324.550 321 C 331.953 321, 335.961 320.554, 337.989 319.506 C 339.578 318.684, 341.581 317.009, 342.439 315.783 C 343.299 314.556, 344 311.509, 344 309 C 344 306.411, 343.298 303.442, 342.372 302.121 C 341.029 300.203, 340.938 299.152, 341.849 296.108 C 342.630 293.504, 342.649 291.314, 341.916 288.658 C 341.221 286.139, 339.823 284.253, 337.689 282.952 C 335.079 281.361, 332.638 281.007, 324.250 281.004 C 314 281, 314 281, 314 301 M 368 301 C 368 321, 368 321, 371.954 321 C 375.909 321, 375.909 321, 376.204 314.250 C 376.475 308.066, 376.693 307.473, 378.805 307.173 C 380.073 306.994, 381.760 307.386, 382.554 308.045 C 383.349 308.704, 385.453 311.889, 387.230 315.122 C 390.390 320.870, 390.556 321, 394.731 321 C 397.079 321, 399 320.818, 399 320.596 C 399 320.374, 397.425 317.406, 395.500 314 C 393.575 310.594, 392 307.371, 392 306.837 C 392 306.303, 393.087 304.434, 394.416 302.683 C 395.744 300.932, 397.110 297.925, 397.449 296 C 397.873 293.598, 397.507 291.408, 396.284 289.020 C 395.303 287.106, 392.971 284.518, 391.102 283.270 C 388.144 281.294, 386.430 281, 377.852 281 C 368 281, 368 281, 368 301 M 417.632 285.199 C 416.768 287.565, 413.572 296.150, 410.530 304.278 C 407.489 312.407, 405 319.494, 405 320.028 C 405 320.563, 406.719 321, 408.820 321 C 412.169 321, 412.815 320.600, 414.070 317.750 C 415.499 314.503, 415.508 314.500, 423.720 314.210 C 431.940 313.920, 431.940 313.920, 433.419 317.460 C 434.727 320.592, 435.317 321, 438.528 321 C 441.974 321, 442.127 320.860, 441.532 318.250 C 441.187 316.738, 438.043 307.850, 434.545 298.500 C 428.186 281.500, 428.186 281.500, 423.695 281.199 C 419.230 280.900, 419.195 280.923, 417.632 285.199 M 440.190 284.750 C 440.497 288.465, 440.547 288.505, 445.500 289 C 450.500 289.500, 450.500 289.500, 450.775 305.250 C 451.051 321, 451.051 321, 454.500 321 C 457.949 321, 457.949 321, 458.225 305.250 C 458.500 289.500, 458.500 289.500, 463.500 289 C 468.453 288.505, 468.503 288.465, 468.810 284.750 C 469.121 281, 469.121 281, 454.500 281 C 439.879 281, 439.879 281, 440.190 284.750 M 478.367 282.772 C 477.194 283.723, 475.731 285.483, 475.117 286.684 C 474.503 287.886, 474.002 290.136, 474.004 291.684 C 474.006 293.233, 474.868 295.911, 475.919 297.635 C 477.227 299.781, 479.356 301.307, 482.665 302.473 C 485.324 303.409, 488.962 304.804, 490.750 305.572 C 492.836 306.468, 494 307.669, 494 308.927 C 494 310.005, 493 311.587, 491.777 312.443 C 490.555 313.299, 488.330 314, 486.833 314 C 485.336 314, 482.850 312.915, 481.309 311.589 C 478.630 309.285, 478.385 309.250, 475.753 310.805 C 474.239 311.699, 473 312.931, 473 313.541 C 473 314.152, 474.012 315.574, 475.250 316.701 C 476.488 317.828, 478.483 319.256, 479.684 319.875 C 480.886 320.494, 484.498 321, 487.712 321 C 491.469 321, 494.438 320.412, 496.027 319.354 C 497.387 318.448, 499.063 317.012, 499.750 316.163 C 500.438 315.313, 501 312.428, 501 309.752 C 501 305.618, 500.548 304.474, 497.989 302.137 C 496.333 300.625, 492.621 298.558, 489.739 297.546 C 486.858 296.533, 483.938 295.265, 483.250 294.729 C 482.563 294.194, 482 292.901, 482 291.856 C 482 290.812, 483.070 289.470, 484.378 288.874 C 486.239 288.026, 487.554 288.169, 490.428 289.533 C 493.350 290.919, 494.601 291.047, 496.550 290.159 C 497.898 289.545, 499 288.398, 499 287.610 C 499 286.822, 497.615 285.013, 495.923 283.589 C 493.331 281.408, 491.874 281.004, 486.673 281.022 C 482.340 281.038, 479.864 281.559, 478.367 282.772 M 322.190 292.750 C 322.486 296.326, 322.681 296.515, 326.405 296.820 C 328.552 296.995, 331.335 296.882, 332.588 296.567 C 333.841 296.253, 335.159 295.075, 335.516 293.950 C 335.873 292.825, 335.623 291.251, 334.960 290.452 C 334.154 289.481, 331.788 289, 327.817 289 C 321.879 289, 321.879 289, 322.190 292.750 M 376.198 294.250 C 376.484 299.221, 376.654 299.518, 379.408 299.832 C 381.007 300.014, 383.840 299.877, 385.703 299.528 C 388.110 299.076, 389.374 298.145, 390.072 296.311 C 390.809 294.371, 390.668 293.143, 389.504 291.365 C 388.158 289.311, 387.161 289, 381.925 289 C 375.895 289, 375.895 289, 376.198 294.250 M 284.594 299.678 C 283.717 302.251, 283 304.726, 283 305.178 C 283 305.630, 285.065 306, 287.588 306 C 292.176 306, 292.176 306, 291.475 301.750 C 291.089 299.413, 290.320 296.938, 289.764 296.250 C 289.209 295.563, 288.178 295, 287.472 295 C 286.766 295, 285.471 297.105, 284.594 299.678 M 422.268 296.250 C 421.730 296.938, 420.780 299.014, 420.157 300.865 C 419.534 302.716, 419.270 304.628, 419.571 305.115 C 419.872 305.602, 421.891 306, 424.059 306 C 427.248 306, 428 305.642, 428 304.122 C 428 303.089, 427.319 300.614, 426.487 298.622 C 425.654 296.630, 424.584 295, 424.109 295 C 423.634 295, 422.805 295.563, 422.268 296.250 M 322 308.393 C 322 311.476, 322.472 312.967, 323.582 313.393 C 324.452 313.727, 326.681 314, 328.535 314 C 330.389 314, 333.014 313.495, 334.368 312.878 C 335.722 312.261, 337.044 310.940, 337.305 309.943 C 337.566 308.945, 337.128 307.200, 336.333 306.065 C 335.126 304.342, 333.820 304, 328.443 304 C 322 304, 322 304, 322 308.393 M 175.259 338.686 C 174.026 338.934, 172.339 340.106, 171.509 341.291 C 170.679 342.476, 170 344.724, 170 346.288 C 170 347.852, 170.447 349.966, 170.992 350.986 C 171.538 352.005, 173.676 353.376, 175.742 354.031 C 177.809 354.687, 180.512 355.858, 181.750 356.635 C 182.988 357.411, 184 358.720, 184 359.544 C 184 360.369, 182.930 361.530, 181.622 362.126 C 179.760 362.975, 178.444 362.830, 175.554 361.459 C 172.175 359.855, 171.729 359.842, 170.268 361.304 C 168.955 362.616, 168.899 363.174, 169.952 364.443 C 170.657 365.291, 172.868 366.421, 174.866 366.954 C 177.049 367.536, 180.027 367.574, 182.325 367.049 C 184.429 366.569, 186.777 365.349, 187.543 364.338 C 188.310 363.327, 188.951 361.218, 188.968 359.651 C 188.990 357.727, 187.992 355.860, 185.894 353.901 C 184.186 352.306, 181.986 351, 181.005 351 C 180.024 351, 178.197 350.170, 176.944 349.156 C 175.487 347.976, 174.895 346.715, 175.302 345.656 C 175.651 344.745, 176.881 344, 178.034 344 C 179.188 344, 180.969 344.448, 181.993 344.996 C 183.017 345.544, 184.563 345.721, 185.428 345.389 C 186.292 345.058, 187 344.170, 187 343.416 C 187 342.663, 185.988 341.391, 184.750 340.591 C 183.512 339.790, 181.375 338.933, 180 338.686 C 178.625 338.438, 176.491 338.439, 175.259 338.686 M 194.802 344.250 C 194.636 347.137, 194.645 353.465, 194.823 358.310 C 195.130 366.706, 195.247 367.106, 197.323 366.810 C 199.083 366.559, 199.502 365.829, 199.512 363 C 199.518 361.075, 199.882 358.938, 200.321 358.250 C 200.759 357.563, 202.913 357, 205.107 357 C 208.136 357, 209.686 356.363, 211.548 354.354 C 213.248 352.519, 214 350.553, 214 347.943 C 214 344.966, 213.356 343.636, 210.923 341.589 C 208.318 339.397, 206.871 339, 201.476 339 C 195.105 339, 195.105 339, 194.802 344.250 M 224.345 340.686 C 223.993 341.684, 223.065 344.075, 222.282 346 C 221.500 347.925, 219.541 353.285, 217.930 357.910 C 216.318 362.536, 215 366.473, 215 366.660 C 215 366.847, 216.125 367, 217.500 367 C 218.875 367, 220 366.582, 220 366.071 C 220 365.561, 220.707 364.436, 221.571 363.571 C 222.569 362.574, 224.918 362, 228 362 C 231.082 362, 233.431 362.574, 234.429 363.571 C 235.293 364.436, 236 365.561, 236 366.071 C 236 366.582, 237.125 367, 238.500 367 C 239.875 367, 241 366.857, 241 366.682 C 241 366.508, 239.383 361.895, 237.406 356.432 C 235.429 350.970, 233.249 344.925, 232.562 343 C 231.537 340.131, 230.741 339.443, 228.149 339.186 C 225.815 338.955, 224.818 339.348, 224.345 340.686 M 251.500 340.801 C 249.850 341.853, 247.647 343.674, 246.604 344.847 C 245.506 346.082, 244.533 348.983, 244.293 351.740 C 243.993 355.167, 244.416 357.480, 245.802 360 C 246.860 361.925, 249.188 364.358, 250.974 365.407 C 252.915 366.546, 255.989 367.287, 258.614 367.247 C 261.029 367.211, 264.466 366.328, 266.250 365.286 C 268.034 364.244, 269.630 362.685, 269.796 361.822 C 269.962 360.958, 269.338 359.960, 268.408 359.603 C 267.479 359.246, 265.672 359.640, 264.394 360.477 C 263.116 361.315, 260.234 362, 257.990 362 C 254.991 362, 253.259 361.350, 251.455 359.545 C 249.752 357.843, 249 355.981, 249 353.469 C 249 350.798, 249.768 349.078, 251.923 346.923 C 253.697 345.149, 255.898 344, 257.522 344 C 258.994 344, 261.725 344.725, 263.591 345.610 C 265.457 346.496, 267.662 346.960, 268.492 346.641 C 269.321 346.323, 270 345.677, 270 345.206 C 270 344.734, 268.878 343.295, 267.508 342.007 C 265.720 340.328, 263.529 339.556, 259.758 339.277 C 255.803 338.985, 253.757 339.363, 251.500 340.801 M 276.739 339.709 C 276.502 340.144, 276.285 345.869, 276.255 352.430 C 276.225 358.992, 276.429 364.954, 276.708 365.680 C 277.068 366.619, 279.492 367, 285.107 367 C 292.817 367, 293 366.943, 293 364.550 C 293 362.269, 292.604 362.079, 287.250 361.800 C 281.594 361.505, 281.500 361.451, 281.500 358.500 C 281.500 355.586, 281.651 355.491, 286.750 355.198 C 291.538 354.922, 292 354.685, 292 352.500 C 292 350.315, 291.538 350.078, 286.750 349.802 C 281.897 349.523, 281.500 349.311, 281.500 347 C 281.500 344.655, 281.860 344.481, 287.313 344.198 C 292.655 343.921, 293.100 343.718, 292.813 341.698 C 292.526 339.682, 291.864 339.476, 284.834 339.209 C 280.618 339.050, 276.975 339.275, 276.739 339.709 M 317.304 340.956 C 315.547 342.028, 313.389 344.003, 312.509 345.346 C 311.629 346.690, 310.653 349.362, 310.341 351.286 C 310.029 353.210, 310.316 356.429, 310.980 358.439 C 311.764 360.814, 313.529 362.984, 316.018 364.631 C 318.723 366.420, 321.201 367.167, 324.440 367.167 C 327.130 367.167, 330.367 366.386, 332.262 365.279 C 334.039 364.241, 335.630 362.685, 335.796 361.822 C 335.962 360.958, 335.338 359.960, 334.408 359.603 C 333.479 359.246, 331.672 359.640, 330.394 360.477 C 329.116 361.315, 326.233 362, 323.987 362 C 320.857 362, 319.333 361.383, 317.452 359.354 C 315.840 357.614, 315 355.533, 315 353.277 C 315 350.818, 315.828 349.018, 317.923 346.923 C 319.781 345.065, 321.876 344.002, 323.673 344.006 C 325.228 344.010, 327.789 344.685, 329.364 345.506 C 330.940 346.328, 332.826 347, 333.555 347 C 334.285 347, 335.135 346.591, 335.444 346.090 C 335.753 345.590, 335.760 344.539, 335.459 343.754 C 335.158 342.970, 333.342 341.580, 331.422 340.664 C 329.503 339.749, 326.260 339.002, 324.216 339.004 C 322.172 339.006, 319.062 339.884, 317.304 340.956 M 343 352.531 C 343 364.016, 343.242 366.156, 344.601 366.677 C 345.481 367.015, 346.600 366.663, 347.086 365.896 C 347.572 365.128, 347.976 363.086, 347.985 361.357 C 347.994 359.497, 348.612 357.979, 349.500 357.638 C 350.325 357.322, 351.656 357.315, 352.458 357.622 C 353.260 357.930, 355.079 360.166, 356.500 362.591 C 358.443 365.906, 359.694 367, 361.542 367 C 362.894 367, 364 366.743, 364 366.428 C 364 366.114, 362.871 363.929, 361.491 361.575 C 359.018 357.355, 359.009 357.259, 360.853 354.897 C 361.883 353.578, 363.038 351.499, 363.422 350.276 C 363.840 348.940, 363.477 346.699, 362.511 344.664 C 361.627 342.801, 359.779 340.765, 358.405 340.139 C 357.030 339.512, 353.002 339, 349.453 339 C 343 339, 343 339, 343 352.531 M 378.402 342.581 C 377.579 344.551, 375.352 350.455, 373.453 355.701 C 371.554 360.946, 370 365.635, 370 366.119 C 370 366.604, 370.848 367, 371.885 367 C 372.922 367, 374.507 365.875, 375.408 364.500 C 376.826 362.336, 377.784 362, 382.530 362 C 387.132 362, 388.362 362.402, 390.187 364.500 C 391.382 365.875, 392.955 367, 393.680 367 C 394.406 367, 395.002 366.438, 395.004 365.750 C 395.006 365.063, 392.919 358.762, 390.367 351.750 C 385.870 339.395, 385.636 339, 382.812 339 C 380.414 339, 379.633 339.634, 378.402 342.581 M 403.200 340.200 C 402.391 341.009, 402 345.593, 402 354.270 C 402 367.044, 402.017 367.137, 404.250 366.820 C 406.159 366.548, 406.576 365.741, 407 361.500 C 407.470 356.801, 407.681 356.483, 410.500 356.226 C 412.150 356.075, 414.512 355.729, 415.750 355.457 C 417.160 355.147, 418 354.222, 418 352.981 C 418 351.319, 417.315 350.998, 413.750 350.985 C 411.413 350.976, 408.898 350.588, 408.163 350.122 C 407.427 349.655, 406.977 348.200, 407.163 346.887 C 407.461 344.776, 408.135 344.442, 413 344 C 417.761 343.567, 418.543 343.198, 418.820 341.250 C 419.126 339.091, 418.840 339, 411.770 339 C 407.371 339, 403.916 339.484, 403.200 340.200 M 424.578 339.875 C 424.256 340.394, 424.268 341.535, 424.604 342.410 C 424.963 343.346, 426.380 344, 428.048 344 C 429.607 344, 431.214 344.537, 431.619 345.193 C 432.025 345.849, 432.241 351.024, 432.101 356.693 C 431.844 367, 431.844 367, 434.389 367 C 436.934 367, 436.934 367, 437.217 355.750 C 437.500 344.500, 437.500 344.500, 441 344 C 443.667 343.619, 444.500 343.024, 444.500 341.500 C 444.500 339.658, 443.738 339.478, 434.831 339.215 C 429.499 339.057, 424.900 339.353, 424.578 339.875 M 199.528 344.954 C 199.204 345.479, 199.222 347.035, 199.568 348.413 C 199.913 349.791, 200.827 351.441, 201.597 352.081 C 202.664 352.966, 203.697 352.954, 205.927 352.030 C 207.538 351.363, 209.124 350.118, 209.452 349.264 C 209.780 348.410, 209.293 346.876, 208.369 345.855 C 207.383 344.765, 205.335 344, 203.404 344 C 201.597 344, 199.853 344.429, 199.528 344.954 M 348.667 344.667 C 348.300 345.033, 348 346.553, 348 348.044 C 348 349.535, 348.669 351.310, 349.487 351.989 C 350.399 352.746, 352.040 352.956, 353.731 352.531 C 355.248 352.151, 357.054 351.370, 357.744 350.797 C 358.435 350.224, 359 348.926, 359 347.913 C 359 346.899, 358.130 345.605, 357.066 345.035 C 356.002 344.466, 353.827 344, 352.232 344 C 350.638 344, 349.033 344.300, 348.667 344.667" stroke="none" fill="#363636" fill-rule="evenodd"/></svg>