<svg xmlns="http://www.w3.org/2000/svg" width="256" height="256" viewBox="0 0 256 256" version="1.1"><path d="M -0 128.004 L -0 256.008 128.250 255.754 L 256.500 255.500 256.754 127.750 L 257.008 0 128.504 0 L 0 0 -0 128.004 M 0.485 128.500 C 0.485 198.900, 0.604 227.553, 0.750 192.172 C 0.896 156.792, 0.896 99.192, 0.750 64.172 C 0.604 29.153, 0.485 58.100, 0.485 128.500 M 16 128 L 16 240 128 240 L 240 240 240 128 L 240 16 128 16 L 16 16 16 128 M 174 198.500 L 174 216 179 216 C 183.667 216, 184 215.833, 184 213.500 C 184 211.500, 183.500 211, 181.500 211 L 179 211 179 196 L 179 181 176.500 181 L 174 181 174 198.500 M 189 183.500 C 189 185.500, 189.500 186, 191.500 186 C 193.500 186, 194 185.500, 194 183.500 C 194 181.500, 193.500 181, 191.500 181 C 189.500 181, 189 181.500, 189 183.500 M 199 198.500 L 199 216 211.500 216 L 224 216 224 203.500 L 224 191 214 191 L 204 191 204 186 C 204 181.333, 203.833 181, 201.500 181 L 199 181 199 198.500 M 84 203.500 L 84 216 86.500 216 L 89 216 89 206 L 89 196 99 196 L 109 196 109 193.500 L 109 191 96.500 191 L 84 191 84 203.500 M 114 193.500 L 114 196 124 196 L 134 196 134 198.500 L 134 201 124 201 L 114 201 114 208.500 L 114 216 126.500 216 L 139 216 139 203.500 L 139 191 126.500 191 L 114 191 114 193.500 M 144 203.500 L 144 216 154 216 L 164 216 164 218.500 L 164 221 154 221 L 144 221 144 223.500 L 144 226 156.500 226 L 169 226 169 208.500 L 169 191 166.500 191 L 164 191 164 201 L 164 211 156.500 211 L 149 211 149 201 L 149 191 146.500 191 L 144 191 144 203.500 M 189 203.500 L 189 216 191.500 216 L 194 216 194 203.500 L 194 191 191.500 191 L 189 191 189 203.500 M 204 203.500 L 204 211 211.500 211 L 219 211 219 203.500 L 219 196 211.500 196 L 204 196 204 203.500 M 119 208.500 C 119 210.944, 119.167 211, 126.500 211 C 133.833 211, 134 210.944, 134 208.500 C 134 206.056, 133.833 206, 126.500 206 C 119.167 206, 119 206.056, 119 208.500" stroke="none" fill="#040404" fill-rule="evenodd"/><path d="M 16 128 L 16 240 128 240 L 240 240 240 128 L 240 16 128 16 L 16 16 16 128 M 174 198.500 L 174 216 179 216 C 183.667 216, 184 215.833, 184 213.500 C 184 211.500, 183.500 211, 181.500 211 L 179 211 179 196 L 179 181 176.500 181 L 174 181 174 198.500 M 189 183.500 C 189 185.500, 189.500 186, 191.500 186 C 193.500 186, 194 185.500, 194 183.500 C 194 181.500, 193.500 181, 191.500 181 C 189.500 181, 189 181.500, 189 183.500 M 199 198.500 L 199 216 211.500 216 L 224 216 224 203.500 L 224 191 214 191 L 204 191 204 186 C 204 181.333, 203.833 181, 201.500 181 L 199 181 199 198.500 M 84 203.500 L 84 216 86.500 216 L 89 216 89 206 L 89 196 99 196 L 109 196 109 193.500 L 109 191 96.500 191 L 84 191 84 203.500 M 114 193.500 L 114 196 124 196 L 134 196 134 198.500 L 134 201 124 201 L 114 201 114 208.500 L 114 216 126.500 216 L 139 216 139 203.500 L 139 191 126.500 191 L 114 191 114 193.500 M 144 203.500 L 144 216 154 216 L 164 216 164 218.500 L 164 221 154 221 L 144 221 144 223.500 L 144 226 156.500 226 L 169 226 169 208.500 L 169 191 166.500 191 L 164 191 164 201 L 164 211 156.500 211 L 149 211 149 201 L 149 191 146.500 191 L 144 191 144 203.500 M 189 203.500 L 189 216 191.500 216 L 194 216 194 203.500 L 194 191 191.500 191 L 189 191 189 203.500 M 204 203.500 L 204 211 211.500 211 L 219 211 219 203.500 L 219 196 211.500 196 L 204 196 204 203.500 M 119 208.500 C 119 210.944, 119.167 211, 126.500 211 C 133.833 211, 134 210.944, 134 208.500 C 134 206.056, 133.833 206, 126.500 206 C 119.167 206, 119 206.056, 119 208.500" stroke="none" fill="#f4f4f4" fill-rule="evenodd"/></svg>